<svg id="Layer_1" data-name="Layer 1" xmlns="http://www.w3.org/2000/svg" viewBox="0 0 404.01758 49.13269"><title>weloveyou</title><path d="M12.47949,45.21484,0,3.39648H7.31934l8.46,28.0791,8.63965-28.0791h5.63965l8.63965,28.0791,8.51953-28.0791h7.25977L41.998,45.21484H36.05859l-8.81934-28.0791-8.87988,28.0791Z" fill="#50505b"/><path d="M84.30078,45.21484V3.39648h26.63867v6.7793H91.7998v9.96h17.93945V26.915H91.7998V38.43457h19.55957v6.78027Z" fill="#50505b"/><path d="M248.19824,45.21484V29.01563L233.13867,3.39648h8.09961l10.74023,18.41895L262.65723,3.39648h8.04L255.6377,29.01563V45.21484Z" fill="#50505b"/><path d="M301.71777,39.81445a20.68854,20.68854,0,0,1-6.41895-15.41895,20.69222,20.69222,0,0,1,6.41895-15.41992,22.61535,22.61535,0,0,1,31.31934,0,20.52626,20.52626,0,0,1,6.47949,15.41992,20.68939,20.68939,0,0,1-6.41992,15.41895,22.8436,22.8436,0,0,1-31.37891,0Zm5.16016-4.7998a14.99615,14.99615,0,0,0,20.93945,0,14.62041,14.62041,0,0,0,4.25977-10.61914,14.62266,14.62266,0,0,0-4.25977-10.62012,14.84849,14.84849,0,0,0-20.93945,0,14.56822,14.56822,0,0,0-4.2002,10.62012A14.37529,14.37529,0,0,0,306.87793,35.01465Z" fill="#50505b"/><path d="M370.11914,3.39648h7.5V28.415c0,7.2002,3.54,10.67969,9.47949,10.67969,5.81934,0,9.41992-3.47949,9.41992-10.67969V3.39648h7.499V29.19531c0,5.33984-1.55957,9.47949-4.73926,12.35938A17.38407,17.38407,0,0,1,387.09863,45.875q-7.46924,0-12.23926-4.32031c-3.18066-2.87988-4.74023-7.01953-4.74023-12.35937Z" fill="#50505b"/><path d="M202.613,14.5243A14.45066,14.45066,0,0,1,198.36029,24.789l-24.34367,24.3437L149.673,24.789A14.52033,14.52033,0,0,1,170.20781,4.25414L174.01662,8.063l3.80882-3.80885A14.52018,14.52018,0,0,1,202.613,14.5243Z" fill="#eeacac"/></svg>