<svg id="Layer_1" data-name="Layer 1" xmlns="http://www.w3.org/2000/svg" viewBox="0 0 548.15723 46.73779"><title>ILOVELAMP</title><path d="M2.7002,14.39941A22.3863,22.3863,0,0,1,10.499,6.29932,21.07422,21.07422,0,0,1,21.7793,3.11963,21.68905,21.68905,0,0,1,37.0791,9.11914,19.27759,19.27759,0,0,1,43.61816,23.939c0,8.15967-3.41992,12.65918-9.11914,12.65918-3.17969,0-5.28027-1.31982-6.2998-4.01953a8.26685,8.26685,0,0,1-6.60059,3.17969,10.00471,10.00471,0,0,1-7.31934-3,10.222,10.222,0,0,1-2.999-7.49951,10.22307,10.22307,0,0,1,2.999-7.5,10.00619,10.00619,0,0,1,7.31934-2.99951,7.60417,7.60417,0,0,1,6,2.63965V15.29932h4.08008V29.03857c0,3.77979,1.98047,3.77979,2.82031,3.77979a4.17946,4.17946,0,0,0,3.05957-1.13965c1.25977-1.02,1.97949-3.72021,1.97949-7.73975a15.99221,15.99221,0,0,0-5.21875-12.05957,17.63963,17.63963,0,0,0-12.54-4.98,17.01681,17.01681,0,0,0-12.54,5.33984A17.62186,17.62186,0,0,0,4.08008,24.959,17.62154,17.62154,0,0,0,9.23926,37.67822a16.95916,16.95916,0,0,0,12.54,5.27979,16.04544,16.04544,0,0,0,8.28027-2.33984l1.91992,3.59961a21.23435,21.23435,0,0,1-10.2002,2.52A21.19384,21.19384,0,0,1,11.21973,43.978a21.7396,21.7396,0,0,1-8.09961-7.73975A21.01994,21.01994,0,0,1,0,24.959,21.765,21.765,0,0,1,2.7002,14.39941ZM21.59863,31.79834a6.35474,6.35474,0,0,0,6.30078-6.53955,6.26353,6.26353,0,0,0-6.30078-6.59961c-3.65918,0-6.29883,2.75977-6.29883,6.59961A6.21174,6.21174,0,0,0,21.59863,31.79834Z" fill="#2d2d40"/><path d="M73.97949,42.478V.65967h9.23926V34.07813H99.53809V42.478Z" fill="#2d2d40"/><path d="M132.11914,6.29932A22.06,22.06,0,0,1,147.958,0a21.82246,21.82246,0,0,1,15.7793,6.29932,20.41506,20.41506,0,0,1,6.54,15.35938,20.71,20.71,0,0,1-6.47949,15.41943,23.22367,23.22367,0,0,1-31.67871,0,20.70729,20.70729,0,0,1-6.48047-15.41943A20.57762,20.57762,0,0,1,132.11914,6.29932Zm6.53906,24.83936a12.67389,12.67389,0,0,0,9.2998,3.77979,12.36242,12.36242,0,0,0,9.23926-3.83984,12.857,12.857,0,0,0,3.83984-9.41992,12.905,12.905,0,0,0-3.7793-9.35937,13.03822,13.03822,0,0,0-18.59961,0,12.905,12.905,0,0,0-3.7793,9.35938A12.98749,12.98749,0,0,0,138.6582,31.13867Z" fill="#2d2d40"/><path d="M211.2002,42.478,194.041.65967h9.83887L215.2793,28.97852,226.61914.65967H236.459L219.35938,42.478Z" fill="#2d2d40"/><path d="M265.44043,42.478V.65967H293.999v8.3999H274.67969v7.85937h18.05957v8.21973H274.67969v8.93945h19.73926V42.478Z" fill="#2d2d40"/><path d="M326.69922,42.478V.65967h4.67969V38.1582h17.21973V42.478Z" fill="#2d2d40"/><path d="M375.83887,42.478,393.53809.65967h3.60059L414.83789,42.478h-5.04L405.47754,32.1582H385.19922L380.87891,42.478ZM386.999,27.83887h16.67871L395.33887,7.91943Z" fill="#2d2d40"/><path d="M446.458,42.478V.65967h4.32031l15.959,26.519,15.959-26.519H486.957V42.478h-4.62012V9.89941L466.7373,35.4585l-15.65918-25.499V42.478Z" fill="#2d2d40"/><path d="M521.998,42.478V.65967h13.37988a12.35524,12.35524,0,0,1,9.05957,3.65967,12.12259,12.12259,0,0,1,3.71973,9.06006A12.35038,12.35038,0,0,1,544.4375,22.499a12.54082,12.54082,0,0,1-9.05957,3.59961h-8.7002V42.478Zm4.67969-20.69922h8.52051a7.82367,7.82367,0,0,0,5.87891-2.3999,8.094,8.094,0,0,0,2.40039-5.99951,8.0951,8.0951,0,0,0-2.40039-6,7.82546,7.82546,0,0,0-5.87891-2.3999h-8.52051Z" fill="#2d2d40"/></svg>