<svg id="Layer_1" data-name="Layer 1" xmlns="http://www.w3.org/2000/svg" viewBox="0 0 512.25684 46.73779"><title>ILOVELAMP</title><path d="M0,42.478V.65967H4.67969V42.478Z" fill="#2d2d40"/><path d="M38.51953,42.478V.65967h9.24023V34.07813H64.0791V42.478Z" fill="#2d2d40"/><path d="M96.66016,6.29932A22.05834,22.05834,0,0,1,112.499,0a21.82246,21.82246,0,0,1,15.7793,6.29932,20.41506,20.41506,0,0,1,6.54,15.35938,20.71,20.71,0,0,1-6.47949,15.41943,23.22367,23.22367,0,0,1-31.67871,0,20.70729,20.70729,0,0,1-6.48047-15.41943A20.57762,20.57762,0,0,1,96.66016,6.29932Zm6.53906,24.83936a12.67389,12.67389,0,0,0,9.2998,3.77979,12.36242,12.36242,0,0,0,9.23926-3.83984,12.857,12.857,0,0,0,3.83984-9.41992,12.905,12.905,0,0,0-3.7793-9.35937,13.03822,13.03822,0,0,0-18.59961,0,12.905,12.905,0,0,0-3.7793,9.35938A12.98749,12.98749,0,0,0,103.19922,31.13867Z" fill="#2d2d40"/><path d="M175.74121,42.478,158.582.65967h9.83887l11.39941,28.31885L191.16016.65967H201L183.90039,42.478Z" fill="#2d2d40"/><path d="M229.98145,42.478V.65967H258.54v8.3999H239.2207v7.85937h18.05957v8.21973H239.2207v8.93945H258.96V42.478Z" fill="#2d2d40"/><path d="M291.24023,42.478V.65967h4.67969V38.1582h17.21973V42.478Z" fill="#2d2d40"/><path d="M340.37988,42.478,358.0791.65967h3.60059L379.37891,42.478h-5.04L370.01855,32.1582H349.74023L345.41992,42.478ZM351.54,27.83887h16.67871L359.87891,7.91943Z" fill="#2d2d40"/><path d="M410.999,42.478V.65967h4.32031l15.959,26.519,15.96-26.519H451.498V42.478h-4.62012V9.89941L431.27832,35.4585l-15.65918-25.499V42.478Z" fill="#2d2d40"/><path d="M486.53906,42.478V.65967h13.37988a12.35524,12.35524,0,0,1,9.05957,3.65967,12.12258,12.12258,0,0,1,3.71973,9.06006,12.35038,12.35038,0,0,1-3.71973,9.11963,12.54082,12.54082,0,0,1-9.05957,3.59961h-8.7002V42.478Zm4.67969-20.69922h8.51953a7.82433,7.82433,0,0,0,5.87988-2.3999,8.094,8.094,0,0,0,2.40039-5.99951,8.0951,8.0951,0,0,0-2.40039-6,7.82613,7.82613,0,0,0-5.87988-2.3999h-8.51953Z" fill="#2d2d40"/></svg>