<svg id="Layer_1" data-name="Layer 1" xmlns="http://www.w3.org/2000/svg" viewBox="0 0 717.25684 46.73779"><title>ILOVELAMP</title><path d="M12.23828,42.47852,0,.66016H4.73926l9.2998,31.61816L24.3584.66016h3.23926L37.918,32.27832,47.2168.66016H51.957L39.71777,42.47852h-3L25.97852,10.13867,15.23828,42.47852Z" fill="#2d2d40"/><path d="M83.09863,42.47852V.66016h23.63965V4.97949h-18.96V18.23926h17.81934v4.31934H87.77832V38.1582H107.1582v4.32031Z" fill="#2d2d40"/><path d="M138.59863,42.47852V.66016h9.23926v33.418h16.31934v8.40039Z" fill="#2d2d40"/><path d="M196.73828,6.29883A22.05992,22.05992,0,0,1,212.57715,0a21.824,21.824,0,0,1,15.7793,6.29883,20.41806,20.41806,0,0,1,6.54,15.35937A20.70957,20.70957,0,0,1,228.417,37.07813a23.22234,23.22234,0,0,1-31.67871,0,20.70683,20.70683,0,0,1-6.48047-15.41992A20.58066,20.58066,0,0,1,196.73828,6.29883Zm6.53906,24.83984a12.67346,12.67346,0,0,0,9.2998,3.7793,12.36061,12.36061,0,0,0,9.23926-3.83984,12.857,12.857,0,0,0,3.83984-9.41992,12.90654,12.90654,0,0,0-3.7793-9.35937,13.03937,13.03937,0,0,0-18.59961,0,12.90654,12.90654,0,0,0-3.7793,9.35938A12.98783,12.98783,0,0,0,203.27734,31.13867Z" fill="#2d2d40"/><path d="M275.81934,42.47852,258.66016.66016H268.499l11.39941,28.31836L291.23828.66016h9.83984L283.97852,42.47852Z" fill="#2d2d40"/><path d="M330.05957,42.47852V.66016h28.55859V9.05957H339.29883v7.85937H357.3584v8.21973H339.29883v8.93945h19.73926v8.40039Z" fill="#2d2d40"/><path d="M392.27832,31.43848c2.10059,5.04,5.58008,7.55957,10.5,7.55957,3.54,0,6.05957-1.19922,7.0791-2.93945a8.11238,8.11238,0,0,0,1.32031-4.43945,6.56083,6.56083,0,0,0-2.09961-5.2207,30.558,30.558,0,0,0-7.25977-4.08008,31.21289,31.21289,0,0,1-8.33984-4.97949c-1.74023-1.62012-2.63965-4.01953-2.63965-7.0791a9.641,9.641,0,0,1,3.23926-7.43945,11.70623,11.70623,0,0,1,8.21973-2.94043,11.9825,11.9825,0,0,1,11.28027,6.65918l-4.02051,2.041a7.73942,7.73942,0,0,0-7.31934-4.38086c-3.78027,0-6.71973,2.52051-6.71973,5.93945a5.518,5.518,0,0,0,2.46,5.041c1.01953.65918,1.7998,1.19922,2.46,1.55957l3.59961,1.62012c4.25977,1.85938,7.25977,3.71973,9.05957,5.58008,1.86035,1.79883,2.75977,4.31934,2.75977,7.61914a11.12864,11.12864,0,0,1-3.47949,8.459c-2.28027,2.2207-5.51953,3.30078-9.66016,3.30078-6.65918,0-12.05957-3.36035-14.459-10.01953Z" fill="#2d2d40"/><path d="M445.61816,21.59863A20.85316,20.85316,0,0,1,451.918,6.11914,21.41967,21.41967,0,0,1,467.39648-.12012a21.1866,21.1866,0,0,1,15.41992,6.23926,20.68014,20.68014,0,0,1,6.35938,15.47949,20.81277,20.81277,0,0,1-6.35937,15.54,21.13457,21.13457,0,0,1-15.41992,6.17969A21.36673,21.36673,0,0,1,451.918,37.13867,20.98758,20.98758,0,0,1,445.61816,21.59863Zm4.61914,0a17.1484,17.1484,0,0,0,4.86035,12.47949A16.6365,16.6365,0,0,0,467.39648,38.998a16.41143,16.41143,0,0,0,12.24023-4.91992,17.15158,17.15158,0,0,0,4.85938-12.47949,17.01055,17.01055,0,0,0-4.85937-12.41895,16.46051,16.46051,0,0,0-12.24023-4.98047,16.6866,16.6866,0,0,0-12.29883,4.98047A17.00741,17.00741,0,0,0,450.2373,21.59863Z" fill="#2d2d40"/><path d="M556.55566,6.959,553.376,9.83984A15.98954,15.98954,0,0,0,540.5957,4.19922a16.45832,16.45832,0,0,0-12.23926,4.98047,17.01055,17.01055,0,0,0-4.85937,12.41895,17.15158,17.15158,0,0,0,4.85938,12.47949A16.40924,16.40924,0,0,0,540.5957,38.998a16.02153,16.02153,0,0,0,12.96-5.87988l3.17969,2.87988a20.42683,20.42683,0,0,1-16.13965,7.32031,21.36673,21.36673,0,0,1-15.47852-6.17969,20.98758,20.98758,0,0,1-6.2998-15.54,20.85316,20.85316,0,0,1,6.2998-15.47949A21.41967,21.41967,0,0,1,540.5957-.12012,20.401,20.401,0,0,1,556.55566,6.959Z" fill="#2d2d40"/><path d="M588.417,42.47852V.66016h4.67969V42.47852Z" fill="#2d2d40"/><path d="M624.95605,42.47852,642.65527.66016h3.60059l17.69922,41.81836h-5.04L654.59473,32.1582H634.31641l-4.32031,10.32031Zm11.16016-14.63965h16.67871L644.45508,7.91992Z" fill="#2d2d40"/><path d="M695.5752,42.47852V.66016h4.67969v37.498h17.21973v4.32031Z" fill="#2d2d40"/></svg>