<?xml version="1.0" standalone="no"?>
<!DOCTYPE svg PUBLIC "-//W3C//DTD SVG 20010904//EN"
 "http://www.w3.org/TR/2001/REC-SVG-20010904/DTD/svg10.dtd">
<svg version="1.0" xmlns="http://www.w3.org/2000/svg"
 width="700.000000pt" height="700.000000pt" viewBox="0 0 700.000000 700.000000"
 preserveAspectRatio="xMidYMid meet">
<metadata>
Created by potrace 1.11, written by Peter Selinger 2001-2013
</metadata>
<g transform="translate(0.000000,700.000000) scale(0.100000,-0.100000)"
fill="#000000" stroke="none">
<path d="M1645 6449 c-27 -3 -72 -9 -100 -13 -138 -19 -367 -92 -503 -160
-356 -179 -630 -454 -811 -813 -34 -69 -97 -231 -106 -273 -2 -8 -8 -35 -15
-60 -47 -171 -64 -388 -47 -585 6 -76 9 -95 22 -155 3 -14 7 -34 9 -46 12 -61
40 -161 48 -171 6 -7 8 -13 5 -13 -8 0 48 -140 89 -221 75 -149 158 -271 267
-393 34 -38 722 -729 1529 -1536 l1468 -1468 1467 1467 c808 807 1496 1499
1530 1537 85 96 151 185 205 279 50 87 124 242 133 280 2 6 12 35 24 65 11 30
22 66 25 80 3 14 8 36 12 50 81 306 58 678 -62 1000 -121 324 -341 618 -609
815 -170 125 -404 240 -571 280 -97 24 -211 46 -269 52 -164 17 -431 2 -565
-32 -14 -3 -36 -8 -50 -11 -60 -11 -221 -70 -314 -115 -262 -126 -369 -213
-760 -622 -88 -91 -166 -169 -174 -172 -10 -4 -100 79 -271 249 -287 287 -300
299 -391 364 -36 25 -67 49 -70 53 -8 10 -104 64 -210 118 -101 50 -232 99
-340 126 -70 18 -68 17 -180 36 -84 13 -338 18 -415 8z"/>
</g>
</svg>
