<svg version="1.1" xmlns="http://www.w3.org/2000/svg" viewBox="0 0 596 54">
<style type="text/css">
	.st0{fill:#2d2d40;}
</style>
<path class="st0" d="M41.6,48.1V6.3h4.7v41.8H41.6z"/>
<path class="st0" d="M80.1,48.1V6.3h9.2v33.4h16.3v8.4H80.1z"/>
<path class="st0" d="M138.3,12c4.2-4.1,9.9-6.4,15.8-6.3c5.9-0.1,11.6,2.2,15.8,6.3c4.3,4,6.6,9.5,6.5,15.4
	c0.1,5.8-2.2,11.4-6.5,15.4c-8.9,8.3-22.8,8.3-31.7,0c-4.2-4-6.6-9.6-6.5-15.4C131.7,21.5,134,15.9,138.3,12z M144.8,36.8
	c2.4,2.5,5.8,3.9,9.3,3.8c3.5,0.1,6.8-1.3,9.2-3.8c5.1-5.2,5.1-13.5,0.1-18.8c-5-5.1-13.3-5.2-18.4-0.2c-0.1,0.1-0.1,0.1-0.2,0.2
	C139.8,23.2,139.8,31.5,144.8,36.8L144.8,36.8z"/>
<path class="st0" d="M217.4,48.1L200.2,6.3h9.8l11.4,28.3l11.3-28.3h9.8l-17.1,41.8H217.4z"/>
<path class="st0" d="M271.6,48.1V6.3h28.6v8.4h-19.3v7.9h18.1v8.2h-18.1v8.9h19.7v8.4L271.6,48.1z"/>
<path class="st0" d="M332.9,48.1V6.3h4.7v37.5h17.2v4.3L332.9,48.1z"/>
<path class="st0" d="M382,48.1l17.7-41.8h3.6L421,48.1h-5l-4.3-10.3h-20.3L387,48.1H382z M393.2,33.5h16.7l-8.3-19.9L393.2,33.5z"/>
<path class="st0" d="M452.6,48.1V6.3h4.3l16,26.5l16-26.5h4.3v41.8h-4.6V15.6l-15.6,25.6l-15.7-25.5v32.5H452.6z"/>
<path class="st0" d="M528.2,48.1V6.3h13.4c3.4-0.1,6.7,1.2,9.1,3.7c2.5,2.4,3.8,5.7,3.7,9.1c0.1,3.4-1.3,6.7-3.7,9.1
	c-2.4,2.4-5.7,3.7-9.1,3.6h-8.7v16.4H528.2z M532.8,27.4h8.5c2.2,0.1,4.3-0.8,5.9-2.4c3.2-3.4,3.2-8.6,0-12
	c-1.5-1.6-3.7-2.5-5.9-2.4h-8.5V27.4z"/>
</svg>
