<?xml version="1.0" encoding="utf-8"?>
<!-- Generator: Adobe Illustrator 18.1.1, SVG Export Plug-In . SVG Version: 6.00 Build 0)  -->
<!DOCTYPE svg PUBLIC "-//W3C//DTD SVG 1.1//EN" "http://www.w3.org/Graphics/SVG/1.1/DTD/svg11.dtd">
<svg version="1.1" id="Layer_1" xmlns="http://www.w3.org/2000/svg" xmlns:xlink="http://www.w3.org/1999/xlink" x="0px" y="0px"
	 viewBox="0 0 100 100" enable-background="new 0 0 100 100" xml:space="preserve">
<g id="Circle_Center" display="none">
	<g display="inline" opacity="0.5">
		<rect fill="none" stroke="#E30613" stroke-width="0.25" stroke-miterlimit="10" width="100" height="100"/>
		<line fill="none" stroke="#E30613" stroke-width="0.25" stroke-miterlimit="10" x1="0" y1="50" x2="100" y2="50"/>
		<line fill="none" stroke="#E30613" stroke-width="0.25" stroke-miterlimit="10" x1="50" y1="0" x2="50" y2="100"/>
		<circle fill="none" stroke="#E30613" stroke-width="0.25" stroke-miterlimit="10" cx="50" cy="50" r="46.9"/>
	</g>
</g>
<g id="Layer_3" display="none">
</g>
<g id="Layer_4" display="none">
	
		<rect x="3.1" y="3.1" display="inline" fill="none" stroke="#FFED00" stroke-width="0.375" stroke-miterlimit="10" width="93.8" height="93.8"/>
</g>
<g>
	<circle fill="#353535" cx="32" cy="88.3" r="2.3"/>
	<circle fill="#353535" cx="72.7" cy="88.3" r="2.3"/>
	<path fill="#353535" d="M96.2,25.9c-0.5-0.6-1.2-0.9-2-0.9H76.6c-0.5,0-0.8,0.2-0.8,0.6s0.3,0.8,0.8,0.8h17.8
		c0.3,0,0.6,0.2,0.8,0.5s0.2,0.6,0.2,0.9l-3,12.8H69.5l0.1-0.8c0-0.3-0.3-0.8-0.8-0.8c-0.3,0-0.8,0.3-0.8,0.8l-0.1,0.8h-1
		c-0.5,0-0.8,0.3-0.8,0.8s0.3,0.8,0.8,0.8h0.9l-1,14.1H45.9l-1-14.1h0.5c0.5,0,0.8-0.3,0.8-0.8s-0.3-0.8-0.8-0.8h-0.6l-0.1-0.8
		c0-0.5-0.3-0.8-0.8-0.8s-0.8,0.3-0.8,0.8l0.1,0.8H21.7l-1.4-5.9l-1.6-7.1c0-0.2,0.1-0.4,0.3-0.6c0.2-0.3,0.5-0.5,0.8-0.5h17.7
		c0.5,0,0.8-0.2,0.8-0.6s-0.3-0.8-0.8-0.8H23l-2.7-10.6c-0.2-1.2-1.2-2-2.5-2H6.2c-1.7,0-3.1,1.4-3.1,3.1s1.4,3.1,3.1,3.1h8
		c0.5,0,0.9,0.3,1.1,0.8l2,8.7c0,0,0,0.1,0,0.1l3,12.9c0,0.1,0,0.1,0,0.2c0,0.2,0.1,0.4,0.2,0.5L24,57l0,0l5.4,23.1
		c-3.4,1.2-5.9,4.4-5.9,8.1c0,4.7,3.9,8.6,8.6,8.6c4.6,0,8.2-3.5,8.6-7.8h23.5c0.4,4.3,4.1,7.8,8.6,7.8c4.8,0,8.6-3.9,8.6-8.6
		s-3.9-8.6-8.6-8.6c-4.4,0-8.1,3.5-8.6,7.8H40.6c-0.4-4.3-4.1-7.8-8.6-7.8c-0.4,0-0.8,0-1.2,0.1l-1.5-6.4c0.2,0,0.3,0,0.5,0h54.4
		c1.2,0,2.3-0.9,2.5-2.2L93.5,42c0.2-0.1,0.2-0.3,0.2-0.6c0-0.1,0-0.2,0-0.3l3-13C96.9,27.3,96.7,26.6,96.2,25.9z M72.7,81.2
		c3.9,0,7,3.1,7,7s-3.1,7-7,7s-7-3.1-7-7S68.8,81.2,72.7,81.2z M39.1,88.3c0,3.9-3.1,7-7,7s-7-3.1-7-7s3.1-7,7-7
		S39.1,84.4,39.1,88.3z M69.4,42.2H92l-3.3,14.1H68.3L69.4,42.2z M66.7,57.8l-1,13.9H47l-1-13.9H66.7z M43.3,42.2l1,14.1h-19
		l-3.3-14.1H43.3z M14.2,17.2h-8c-0.9,0-1.6-0.6-1.6-1.6s0.8-1.6,1.6-1.6H18c0.5,0,0.9,0.3,0.8,0.8l2.6,10.3h-1.5
		c-0.5,0-1.1,0.2-1.5,0.5l-1.4-6.4C16.6,18,15.5,17.2,14.2,17.2z M28.9,71.2l-3.1-13.4h18.7l1,13.9H29.8
		C29.3,71.7,29,71.5,28.9,71.2z M85.3,70.9c-0.2,0.5-0.6,0.8-1.1,0.8h-17l1-13.9h20.1L85.3,70.9z"/>
	<path fill="#353535" d="M48.4,26.6h17.3c0.3,0,0.6-0.3,0.6-0.8S66.1,25,65.6,25H48.4c-0.5,0-0.8,0.3-0.8,0.8S48,26.6,48.4,26.6z"/>
	<path fill="#353535" d="M57,42.2c9.1,0,16.4-7.3,16.4-16.4S66.1,9.4,57,9.4s-16.4,7.3-16.4,16.4S48,42.2,57,42.2z M57,10.9
		c8.3,0,14.8,6.7,14.8,14.8S65.2,40.6,57,40.6s-14.8-6.7-14.8-14.8S48.9,10.9,57,10.9z"/>
</g>
<g id="Text" display="none">
</g>
<g id="Pixel_grid" display="none">
</g>
<g id="Layer_5" display="none">
</g>
<g id="Layer_8" display="none">
</g>
</svg>
